<?xml version="1.0" encoding="UTF-8"?><svg xmlns="http://www.w3.org/2000/svg" viewBox="0 0 500 140.51"><defs><style>.cls-1,.cls-2{fill:#fff;}.cls-3{fill:#999;mix-blend-mode:multiply;}.cls-4{isolation:isolate;}.cls-2{font-family:BerlinSansFBDemi-Bold, 'Berlin Sans FB Demi';font-size:116.01px;}</style></defs><g class="cls-4"><g id="OBJECTS"><g><g><path class="cls-1" d="M165.67,66.16c-.39,0-.78-.05-1.17-.15-2.4-.64-3.82-3.11-3.18-5.51l4.81-17.94H67.54c-2.48,0-4.5-2.01-4.5-4.5s2.01-4.5,4.5-4.5h104.45c1.4,0,2.72,.65,3.57,1.76,.85,1.11,1.14,2.55,.78,3.9l-6.32,23.6c-.54,2.01-2.36,3.33-4.34,3.33Z"/><polygon class="cls-3" points="74.99 33.56 68.05 33.56 73.53 42.56 80.42 42.56 74.99 33.56"/></g><g><g><path class="cls-1" d="M121.02,118.62c0,3.09-2.5,5.59-5.59,5.59s-5.59-2.5-5.59-5.59,2.5-5.59,5.59-5.59,5.59,2.5,5.59,5.59Z"/><circle class="cls-1" cx="159.5" cy="118.62" r="5.59"/></g><g><path class="cls-1" d="M163.9,109.38h-56.03c-2.48,0-4.5-2.01-4.5-4.5s2.01-4.5,4.5-4.5h52.57l6.21-23.39c.64-2.4,3.1-3.83,5.5-3.19,2.4,.64,3.83,3.1,3.19,5.5l-7.09,26.73c-.52,1.97-2.31,3.34-4.35,3.34Z"/><polygon class="cls-3" points="164.09 86.65 173.39 86.65 175.42 78.94 166.13 78.94 164.09 86.65"/></g></g><path class="cls-1" d="M171,82.65H91.74c-1.57,0-3.04-.82-3.85-2.17L56.63,28.69H29.55c-2.48,0-4.5-2.01-4.5-4.5s2.01-4.5,4.5-4.5h29.62c1.57,0,3.04,.82,3.85,2.17l31.26,51.79h76.72c2.48,0,4.5,2.01,4.5,4.5s-2.01,4.5-4.5,4.5Z"/></g><text class="cls-2" transform="translate(192.96 113.12)"><tspan x="0" y="0">OMG</tspan></text></g></g></svg>